<?xml version="1.0" standalone="no"?>
<!DOCTYPE svg PUBLIC "-//W3C//DTD SVG 20010904//EN"
 "http://www.w3.org/TR/2001/REC-SVG-20010904/DTD/svg10.dtd">
<svg version="1.0" xmlns="http://www.w3.org/2000/svg"
 width="600.000000pt" height="600.000000pt" viewBox="0 0 600.000000 600.000000"
 preserveAspectRatio="xMidYMid meet">
<metadata>
Created by potrace 1.14, written by Peter Selinger 2001-2017
</metadata>
<g transform="translate(0.000000,600.000000) scale(0.100000,-0.100000)"
fill="#000000" stroke="none">
<path d="M2857 4664 c-3 -3 -23 -7 -44 -9 -35 -3 -92 -21 -213 -66 -31 -12
-107 -61 -182 -119 -14 -11 -30 -20 -35 -20 -11 0 -72 -65 -122 -128 -44 -56
-87 -147 -96 -202 -16 -99 -7 -358 16 -417 13 -34 13 -33 -32 -31 -51 2 -70
-20 -99 -111 -25 -79 -25 -75 6 -168 14 -43 28 -86 30 -97 27 -140 119 -228
191 -181 14 9 26 15 28 13 1 -2 5 -23 8 -48 3 -25 7 -54 10 -65 11 -47 20
-278 19 -510 -2 -308 1 -284 -31 -319 -26 -28 -152 -96 -180 -96 -8 0 -43 -14
-79 -31 -47 -22 -74 -29 -95 -25 -31 6 -76 -12 -117 -48 -14 -12 -45 -31 -70
-41 -25 -11 -54 -28 -65 -38 -11 -10 -56 -34 -100 -53 -44 -20 -94 -42 -112
-50 -17 -8 -34 -14 -37 -14 -3 0 -38 -15 -78 -34 -87 -41 -141 -80 -144 -103
-3 -17 -27 -41 -109 -108 -50 -41 -87 -63 -200 -119 -110 -54 -193 -120 -257
-206 -27 -36 -52 -70 -57 -76 -5 -6 -23 -42 -41 -80 -58 -124 -81 -182 -87
-216 l-4 -28 2501 0 2500 0 -6 28 c-33 151 -108 322 -167 386 -157 167 -166
175 -323 252 -92 46 -185 101 -240 143 -49 38 -125 87 -169 111 -44 24 -81 47
-83 51 -5 12 -90 69 -103 69 -6 0 -29 9 -52 19 -23 11 -60 23 -82 27 -22 5
-43 9 -47 10 -5 1 -12 2 -17 3 -5 0 -30 17 -55 36 -25 19 -60 37 -78 40 -47 8
-72 16 -79 26 -10 16 -173 79 -203 79 -28 0 -112 46 -136 75 -19 23 -30 129
-36 370 -5 219 -6 267 0 272 2 2 1 17 -4 32 -4 15 -4 34 0 42 5 8 11 41 14 74
15 143 15 145 47 138 98 -19 166 81 194 287 14 102 15 117 19 165 5 55 -14
112 -39 122 -9 3 -35 0 -58 -8 -39 -13 -55 -12 -50 2 2 7 6 24 21 99 4 25 8
113 7 196 -1 131 -4 159 -25 213 -28 77 -78 136 -194 235 -27 22 -63 53 -80
69 -45 40 -260 144 -344 166 -68 17 -242 27 -255 15z"/>
</g>
</svg>
